<svg viewBox="0 0 24 24" fill="none" xmlns="http://www.w3.org/2000/svg">
  <g stroke-linecap="round">

    <!-- Vertical & Horizontal rays -->
    <g stroke-width="0.6" stroke="#f8b663">
      <line x1="12" y1="12" x2="4" y2="12" stroke-width="0.6"/>
      <line x1="12" y1="12" x2="20" y2="12" stroke-width="0.6"/>
      <line x1="12" y1="12" x2="12" y2="20" stroke-width="0.6"/>
      <line x1="12" y1="12" x2="12" y2="4" stroke-width="0.6"/>
    </g>

    <!-- Diagonal rays -->
    <g stroke-width="0.5" stroke="#eea031">
      <line x1="12" y1="12" x2="16.95" y2="16.95"/>
      <line x1="12" y1="12" x2="7.05" y2="7.05"/>
      <line x1="12" y1="12" x2="16.95" y2="7.05"/>
      <line x1="12" y1="12" x2="7.05" y2="16.95"/>
    </g>

    <!-- Diagonal rays2 -->

    <g stroke-width="0.2" stroke="#ffcc95">
      <g transform="rotate(22.5, 12, 12)">
        <line x1="12" y1="12" x2="15.465" y2="15.465"/>
        <line x1="12" y1="12" x2="8.535" y2="8.535"/>
        <line x1="12" y1="12" x2="15.465" y2="8.535"/>
        <line x1="12" y1="12" x2="8.535" y2="15.465"/>
      </g>
      <g transform="rotate(-22.5, 12, 12)">
        <line x1="12" y1="12" x2="15.465" y2="15.465"/>
        <line x1="12" y1="12" x2="8.535" y2="8.535"/>
        <line x1="12" y1="12" x2="15.465" y2="8.535"/>
        <line x1="12" y1="12" x2="8.535" y2="15.465"/>
      </g>
    </g>

    <circle cx="12" cy="12" r="1.4" fill="#ffcc95"/>

  </g>
</svg>
