<svg data-v-0dd9719b="" version="1.0" xmlns="http://www.w3.org/2000/svg" xmlns:xlink="http://www.w3.org/1999/xlink" width="100%" height="100%" viewBox="0 0 140 140" preserveAspectRatio="xMidYMid meet" color-interpolation-filters="sRGB" style="margin: auto;"> <rect data-v-0dd9719b="" x="0" y="0" width="100%" height="100%" fill="#ffffff" fill-opacity="1" class="background"></rect> <!----> <g data-v-0dd9719b="" fill="#333" class="icon-text-wrapper icon-svg-group iconsvg" transform="translate(20, 20)"><g fill="#333" class="iconsvg-imagesvg icon_container"><rect fill="#333" fill-opacity="0" stroke-width="2" x="0" y="0" width="100" height="100" class="image-rect"></rect> <svg viewBox="0 0 60 60.00120002400048" x="0" y="0" width="100" height="100" class="image-svg-svg bn" style="overflow: visible;"><g hollow-target="iconBnFill" mask="url(#4105cd49-d745-4853-b9ce-e22bd8b3b1a6)"><g><svg viewBox="-0.00005 -0.00005 64.99911 65.0001" xmlns="http://www.w3.org/2000/svg" style="overflow: visible;" width="60" height="60.00120002400048" x="0" y="0" filtersec="colorsf2004051012" filter="url(#SkZP9531BISPsjoC9-EY3)"><g transform="scale(1, 1) skewX(0)"><g fill="#000" fill-rule="evenodd"><path d="M32.56 61.715a9.574 9.574 0 0 1-6.811-2.821L6.166 39.31a9.571 9.571 0 0 1-2.82-6.81 9.571 9.571 0 0 1 2.82-6.81L25.748 6.106a9.57 9.57 0 0 1 6.811-2.82 9.57 9.57 0 0 1 6.811 2.82L58.955 25.69a9.57 9.57 0 0 1 2.82 6.81 9.571 9.571 0 0 1-2.82 6.81L39.37 58.894a9.572 9.572 0 0 1-6.811 2.82"></path><path d="M32.5 1.095a11.745 11.745 0 0 0-8.36 3.463L4.558 24.14A11.744 11.744 0 0 0 1.095 32.5a11.743 11.743 0 0 0 3.462 8.36l19.584 19.582a11.745 11.745 0 0 0 8.359 3.462 11.743 11.743 0 0 0 8.36-3.462L60.441 40.86a11.743 11.743 0 0 0 3.462-8.36 11.744 11.744 0 0 0-3.462-8.359L40.86 4.558a11.744 11.744 0 0 0-8.36-3.463M32.5 65a12.834 12.834 0 0 1-9.132-3.784L3.782 41.634A12.835 12.835 0 0 1 0 32.5a12.832 12.832 0 0 1 3.784-9.133L23.366 3.784A12.832 12.832 0 0 1 32.499 0a12.83 12.83 0 0 1 9.134 3.784l19.583 19.583a12.832 12.832 0 0 1 3.783 9.132 12.83 12.83 0 0 1-3.783 9.134L41.633 61.217A12.832 12.832 0 0 1 32.5 65"></path></g></g><defs><filter id="SkZP9531BISPsjoC9-EY3"><feColorMatrix type="matrix" values="0 0 0 0 0.19921875  0 0 0 0 0.19921875  0 0 0 0 0.19921875  0 0 0 1 0"></feColorMatrix></filter></defs></svg></g> <g filter="url(#colors699278038)"><svg xmlns="http://www.w3.org/2000/svg" xmlns:xlink="http://www.w3.org/1999/xlink" viewBox="0 0 53.208000000000006 50.400000000000006" width="45" height="45.0009" x="7.5" y="7.5001500120002405" class="image-svg-letter"><path transform="translate(-0.7200000000000001 50.400000000000006)" d="M0.72 0C8.28-0.72 16.13-0.72 23.69 0L23.69-0.86C18.65-1.94 18.29-12.89 18.29-24.98L36.43-24.98C36.43-12.89 35.93-1.94 30.96-0.86L30.96 0C38.52-0.72 46.37-0.72 53.93 0L53.93-0.86C48.67-1.94 47.95-13.75 47.95-26.35C47.95-39.38 48.96-48.24 53.93-49.54L53.93-50.40C46.37-49.68 38.52-49.68 30.96-50.40L30.96-49.54C35.86-48.24 36.43-39.89 36.43-27.00L18.29-27.00C18.29-40.18 18.79-48.24 23.69-49.54L23.69-50.40C16.13-49.68 8.28-49.68 0.72-50.40L0.72-49.54C5.69-48.17 6.70-39.10 6.70-26.35C6.70-13.75 5.90-1.94 0.72-0.86Z"></path></svg></g></g><mask id="4105cd49-d745-4853-b9ce-e22bd8b3b1a6"><g fill="white"><svg viewBox="-0.00005 -0.00005 64.99911 65.0001" xmlns="http://www.w3.org/2000/svg" style="overflow: visible;" width="60" height="60.00120002400048" x="0" y="0" filtersec="colorsf2004051012"><g transform="scale(1, 1) skewX(0)"><g fill-rule="evenodd"><path d="M32.56 61.715a9.574 9.574 0 0 1-6.811-2.821L6.166 39.31a9.571 9.571 0 0 1-2.82-6.81 9.571 9.571 0 0 1 2.82-6.81L25.748 6.106a9.57 9.57 0 0 1 6.811-2.82 9.57 9.57 0 0 1 6.811 2.82L58.955 25.69a9.57 9.57 0 0 1 2.82 6.81 9.571 9.571 0 0 1-2.82 6.81L39.37 58.894a9.572 9.572 0 0 1-6.811 2.82"></path><path d="M32.5 1.095a11.745 11.745 0 0 0-8.36 3.463L4.558 24.14A11.744 11.744 0 0 0 1.095 32.5a11.743 11.743 0 0 0 3.462 8.36l19.584 19.582a11.745 11.745 0 0 0 8.359 3.462 11.743 11.743 0 0 0 8.36-3.462L60.441 40.86a11.743 11.743 0 0 0 3.462-8.36 11.744 11.744 0 0 0-3.462-8.359L40.86 4.558a11.744 11.744 0 0 0-8.36-3.463M32.5 65a12.834 12.834 0 0 1-9.132-3.784L3.782 41.634A12.835 12.835 0 0 1 0 32.5a12.832 12.832 0 0 1 3.784-9.133L23.366 3.784A12.832 12.832 0 0 1 32.499 0a12.83 12.83 0 0 1 9.134 3.784l19.583 19.583a12.832 12.832 0 0 1 3.783 9.132 12.83 12.83 0 0 1-3.783 9.134L41.633 61.217A12.832 12.832 0 0 1 32.5 65"></path></g></g><defs></defs></svg></g> <g fill="black"><svg xmlns="http://www.w3.org/2000/svg" xmlns:xlink="http://www.w3.org/1999/xlink" viewBox="0 0 53.208000000000006 50.400000000000006" width="45" height="45.0009" x="7.5" y="7.5001500120002405" class="image-svg-letter"><path transform="translate(-0.7200000000000001 50.400000000000006)" d="M0.72 0C8.28-0.72 16.13-0.72 23.69 0L23.69-0.86C18.65-1.94 18.29-12.89 18.29-24.98L36.43-24.98C36.43-12.89 35.93-1.94 30.96-0.86L30.96 0C38.52-0.72 46.37-0.72 53.93 0L53.93-0.86C48.67-1.94 47.95-13.75 47.95-26.35C47.95-39.38 48.96-48.24 53.93-49.54L53.93-50.40C46.37-49.68 38.52-49.68 30.96-50.40L30.96-49.54C35.86-48.24 36.43-39.89 36.43-27.00L18.29-27.00C18.29-40.18 18.79-48.24 23.69-49.54L23.69-50.40C16.13-49.68 8.28-49.68 0.72-50.40L0.72-49.54C5.69-48.17 6.70-39.10 6.70-26.35C6.70-13.75 5.90-1.94 0.72-0.86Z"></path></svg></g></mask></svg> <defs><filter id="colors699278038"><feColorMatrix type="matrix" values="0 0 0 0 0.19921875  0 0 0 0 0.19921875  0 0 0 0 0.19921875  0 0 0 1 0" class="icon-fecolormatrix"></feColorMatrix></filter> <filter id="colorsf2004051012"><feColorMatrix type="matrix" values="0 0 0 0 0.99609375  0 0 0 0 0.99609375  0 0 0 0 0.99609375  0 0 0 1 0" class="icon-fecolormatrix"></feColorMatrix></filter> <filter id="colorsb6917215133"><feColorMatrix type="matrix" values="0 0 0 0 0  0 0 0 0 0  0 0 0 0 0  0 0 0 1 0" class="icon-fecolormatrix"></feColorMatrix></filter></defs></g> <g transform="translate(50,107)"><g data-gra="path-name" fill-rule="" class="tp-name iconsvg-namesvg"><g transform="scale(1)"><g><path d="" transform="translate(0, 0)"></path></g> <!----> <!----> <!----> <!----> <!----> <!----> <!----></g></g> <!----></g></g><defs v-gra="od"></defs></svg>
